<svg width="120" height="40" viewBox="0 0 120 40" fill="none" xmlns="http://www.w3.org/2000/svg">
<path d="M27.8876 3H1.00034V35.9998H19.3793L27.8876 25.9998L37.4272 35.9998H45.9354L31.755 21.7691L48.0003 3H40.0003L16.801 29.5896H8.94961V10H21.0003L27.8876 3Z" fill="#FF6700"/>
<path d="M60.1437 16.1867C63.541 16.1867 65.8557 15.216 65.8557 12.584C65.8557 7.6 56.261 9.59733 56.261 6.2C56.261 4.8 57.661 4.27733 60.1064 4.25867C61.9357 4.25867 63.653 4.59467 65.109 5.26667V3.68C63.7837 3.10133 61.917 2.74667 60.0504 2.74667C56.7837 2.74667 54.6184 3.848 54.6184 6.27467C54.6184 11.3333 64.2317 8.90667 64.2317 12.696C64.2317 14.152 62.589 14.656 60.1064 14.656C58.109 14.656 56.3544 14.3013 54.637 13.4613V15.0853C56.2237 15.7947 57.997 16.1867 60.1437 16.1867ZM72.4201 16.1867C73.6894 16.1867 74.7907 16 75.6867 15.7387V14.3387C74.8654 14.6 73.9507 14.768 72.8121 14.768C70.8147 14.768 70.1614 14.32 70.1614 12.808V8.40267H75.4067V7.04H70.1614V4.37067L68.6494 4.66933V7.04H66.6707V8.40267H68.6307V12.9947C68.6307 15.2347 69.9747 16.1867 72.4201 16.1867ZM78.633 12.304V7.04H77.1024V12.4533C77.1024 14.7867 78.7824 16.1867 81.5264 16.1867C83.2437 16.1867 84.8677 15.5893 85.9877 14.4693V16H87.3877V7.04H85.8384V12.976C84.793 14.1147 83.337 14.7867 81.6944 14.7867C79.7344 14.7867 78.633 14.0213 78.633 12.304ZM100.688 16V2.93333H99.1575V8.47733C98.1681 7.58133 96.6561 6.85333 94.6215 6.85333C91.3921 6.85333 89.4135 8.75733 89.4135 11.52C89.4135 14.2827 91.3921 16.1867 94.6215 16.1867C96.5068 16.1867 98.1308 15.664 99.3068 14.4693V16H100.688ZM90.9441 11.52C90.9441 9.504 92.4188 8.25333 94.8081 8.25333C96.6375 8.25333 98.2055 9.01867 99.1575 10.3067V12.8267C98.1681 14.0587 96.6188 14.7867 94.8081 14.7867C92.4188 14.7867 90.9441 13.536 90.9441 11.52ZM103.334 16H104.883V7.04H103.334V16ZM102.961 4.688C102.961 5.39733 103.483 5.77067 104.118 5.77067C104.734 5.77067 105.257 5.39733 105.257 4.688C105.257 3.97866 104.734 3.624 104.118 3.624C103.483 3.624 102.961 3.97866 102.961 4.688ZM112.625 16.1867C115.836 16.1867 118.337 14.5813 118.337 11.52C118.337 8.44 115.836 6.85333 112.625 6.85333C109.433 6.85333 106.913 8.44 106.913 11.52C106.913 14.5813 109.433 16.1867 112.625 16.1867ZM108.463 11.52C108.463 9.504 110.031 8.29067 112.625 8.29067C115.22 8.29067 116.807 9.504 116.807 11.52C116.807 13.536 115.22 14.7493 112.625 14.7493C110.031 14.7493 108.463 13.536 108.463 11.52ZM66.061 36H68.077L62.533 29.224L67.685 22.9333H65.7064L61.133 28.5893H57.1384V22.9333H55.533V36H57.1384V30.1013H61.189L66.061 36ZM70.521 32.304V27.04H68.9904V32.4533C68.9904 34.7867 70.6704 36.1867 73.4144 36.1867C75.1317 36.1867 76.7557 35.5893 77.8757 34.4693V36H79.2757V27.04H77.7264V32.976C76.681 34.1147 75.225 34.7867 73.5824 34.7867C71.6224 34.7867 70.521 34.0213 70.521 32.304ZM81.9175 36H83.4481V30.0453C84.4001 29.0187 85.7441 28.2533 87.5548 28.2533C89.6641 28.2533 90.6535 29.1307 90.6535 30.904V36H92.2028V30.6987C92.2028 28.2907 90.4668 26.8533 87.7041 26.8533C85.9121 26.8533 84.4188 27.5067 83.4481 28.3467V22.9333H81.9175V36ZM99.9562 36.1867C103.167 36.1867 105.668 34.5813 105.668 31.52C105.668 28.44 103.167 26.8533 99.9562 26.8533C96.7642 26.8533 94.2442 28.44 94.2442 31.52C94.2442 34.5813 96.7642 36.1867 99.9562 36.1867ZM95.7935 31.52C95.7935 29.504 97.3615 28.2907 99.9562 28.2907C102.551 28.2907 104.138 29.504 104.138 31.52C104.138 33.536 102.551 34.7493 99.9562 34.7493C97.3615 34.7493 95.7935 33.536 95.7935 31.52ZM116.464 30.736V36H117.994V30.5867C117.994 28.2533 116.314 26.8533 113.57 26.8533C111.853 26.8533 110.229 27.4507 109.109 28.5707V27.04H107.709V36H109.258V30.064C110.304 28.9253 111.76 28.2533 113.402 28.2533C115.362 28.2533 116.464 29.0187 116.464 30.736Z" fill="#232323"/>
</svg>
